HIERARCHY
ROOT pelvis
{
  OFFSET 0 100 0
  CHANNELS 6 Xposition Yposition Zposition Zrotation Xrotation Yrotation
  JOINT pelvis_right_femur
  {
    OFFSET -10.78128 -3.44521 -0.5502486
    CHANNELS 3 Zrotation Xrotation Yrotation
    JOINT right_femur_tibia
    {
      OFFSET -0.8047443 -44.0398 -0.1307829
      CHANNELS 3 Zrotation Xrotation Yrotation
      JOINT right_tibia_foot
      {
        OFFSET 3.006224 -47.83518 -5
        CHANNELS 3 Zrotation Xrotation Yrotation
        End Site
        {
          OFFSET 0 -5 15
        }
      }
    }
  }
  JOINT pelvis_left_femur
  {
    OFFSET 10.78128 -3.44521 -0.5502486
    CHANNELS 3 Zrotation Xrotation Yrotation
    JOINT left_femur_tibia
    {
      OFFSET 0.8047443 -44.0398 -0.1307829
      CHANNELS 3 Zrotation Xrotation Yrotation
      JOINT left_tibia_foot
      {
        OFFSET -4.370144 -48.10324 -4.275266
        CHANNELS 3 Zrotation Xrotation Yrotation
        End Site
        {
          OFFSET 0 -5 15
        }
      }
    }
  }
  JOINT pelvis_spine1
  {
    OFFSET 0 6.468898 -3.129235
    CHANNELS 3 Zrotation Xrotation Yrotation
    JOINT spine1
    {
      OFFSET 0 23.15396 4.99043
      CHANNELS 3 Zrotation Xrotation Yrotation
      JOINT spine2
      {
        OFFSET 0 20.79997 -5.064912
        CHANNELS 3 Zrotation Xrotation Yrotation
        JOINT neck
        {
          OFFSET 0 14.38658 9.616178
          CHANNELS 3 Zrotation Xrotation Yrotation
          End Site
          {
            OFFSET 0 20 0
          }
        }
      }
      JOINT right_manubrium
      {
        OFFSET -5.722621 16.35077 3.967754
        CHANNELS 3 Zrotation Xrotation Yrotation
        JOINT right_clavicle
        {
          OFFSET -13.16364 1.694482 -4.693211
          CHANNELS 3 Zrotation Xrotation Yrotation
          JOINT right_humerus
          {
            OFFSET -28.5034 -0.3100689 -2.792744
            CHANNELS 3 Zrotation Xrotation Yrotation
            JOINT right_radius
            {
              OFFSET -25.15693 0.02248979 -1.271978
              CHANNELS 3 Zrotation Xrotation Yrotation
              End Site
              {
                OFFSET -15 0 0
              }
            }
          }
        }
      }
      JOINT left_manubrium
      {
        OFFSET 5.722621 16.35077 3.967754
        CHANNELS 3 Zrotation Xrotation Yrotation
        JOINT left_clavicle
        {
          OFFSET 13.16364 1.694482 -4.693211
          CHANNELS 3 Zrotation Xrotation Yrotation
          JOINT left_humerus
          {
            OFFSET 29.39168 -1.063119 -2.237045
            CHANNELS 3 Zrotation Xrotation Yrotation
            JOINT left_radius
            {
              OFFSET 24.59957 -0.9528479 0.9047498
              CHANNELS 3 Zrotation Xrotation Yrotation
              End Site
              {
                OFFSET 15 -0 -0
              }
            }
          }
        }
      }
    }
  }
}
MOTION
Frames: 21
Frame Time: 0.0416666666667
0 103.5113 0 0.6315793 -0.05623346 -0.07516009 3.600066 -16.93858 9.266594 -0 35.14981 -0 -4.759253 -16.88362 -2.273752 -6.99862 8.908545 -22.0812 -0 4.243423 -0 8.870645 -16.87249 26.2215 -3.105461 -4.127346 5.43443 2.426881 10.18906 -7.928832 1.054774 21.39629 6.943917 2.998004 -25.51646 9.603512 6.234871 -20.75745 11.86627 85.59833 34.25414 -19.16676 -0 0 17.50049 -7.965246 8.943629 4.365044 6.931401 -20.45179 -0.8512936 -94.45134 23.55173 22.64659 0 0 -13.97985 12.36559 16.88918 -0.0618931
0.401657 103.0809 1.737606 0.2477003 0.2631711 -0.167359 4.159598 -19.06942 8.922455 -0 33.65202 -0 -4.904312 -15.74145 -2.160295 -6.695036 9.467189 -21.67657 -0 4.444237 -0 7.969001 -17.88001 25.66472 -2.978392 -3.769784 5.171949 2.585469 10.0443 -8.043317 1.034875 21.19404 7.124989 3.141047 -25.80637 9.701134 6.11791 -20.51658 11.81448 85.70647 34.14425 -19.46405 -0 0 17.15226 -8.200096 8.904916 4.40962 7.232128 -20.70641 -0.6670547 -94.30835 23.66362 22.32374 0 0 -14.49219 12.09198 16.84368 0.1301918
0.7772328 102.541 3.878375 -0.2334749 0.965497 -0.2415124 5.016173 -22.99063 8.196398 -0 30.48179 -0 -5.188713 -13.13072 -1.775682 -6.382322 10.18631 -20.65804 -0 5.03556 -0 7.928278 -18.99374 25.01762 -2.880422 -3.234403 4.889685 2.883623 10.01313 -8.20261 1.055901 20.82259 7.331439 3.330309 -26.41037 9.850807 5.862581 -20.18286 11.82981 86.05373 34.10749 -19.88273 -0 0 16.12202 -8.688557 8.95934 4.7012 7.647113 -21.29142 -0.5392668 -93.34397 22.68549 21.11091 0 0 -15.97889 13.11941 16.20609 -1.123141
1.125115 101.8683 6.472655 -0.5707047 1.586386 -0.2486174 5.63782 -26.60388 7.291935 -0 26.9396 -0 -5.473541 -10.42611 -1.351919 -6.188018 10.98235 -19.52654 -0 5.890365 -0 7.861257 -20.09143 24.20034 -2.842119 -2.733939 4.631581 3.136475 9.998674 -8.331488 1.083147 20.51251 7.514151 3.504845 -26.86572 9.957374 5.536177 -19.78811 11.83026 86.53542 33.94045 -20.40455 -0 0 14.88674 -9.2358 9.038025 5.013506 8.008607 -21.94098 -0.5289782 -92.20886 21.73444 19.67934 0 0 -17.84161 14.05143 15.45817 -2.277496
1.441785 101.0565 9.598554 -0.7723639 2.127953 -0.1353212 6.022523 -29.92076 6.135201 -0 22.88352 -0 -5.767939 -7.624272 -0.8962361 -6.104036 11.948 -18.25179 -0 7.07669 -0 7.637481 -21.18499 23.12341 -2.841886 -2.26382 4.369257 3.337263 9.980663 -8.433748 1.111601 20.27136 7.685467 3.665245 -27.13502 10.01762 5.103212 -19.29215 11.79846 87.2092 33.62416 -21.09666 -0 0 13.38494 -9.833495 9.125407 5.326824 8.312271 -22.66353 -0.6553967 -90.87043 20.88839 17.96799 0 0 -20.209 14.78121 14.58496 -3.225158
1.722817 100.1151 13.31983 -0.84536 2.531201 0.1505712 6.156476 -32.59491 4.754975 -0 18.58479 -0 -6.078136 -4.95555 -0.4616179 -6.111137 13.0913 -16.88651 -0 8.598481 -0 7.10678 -22.10521 21.73816 -2.820343 -1.8691 4.082085 3.452572 9.950622 -8.504488 1.124874 20.13191 7.844839 3.791726 -27.14739 10.014 4.545891 -18.70701 11.72446 88.10248 33.13086 -21.9687 -0 0 11.67224 -10.44591 9.199648 5.615805 8.505818 -23.40596 -0.9546388 -89.39667 20.28135 16.06441 0 0 -23.01735 15.1305 13.64562 -3.759335
1.964281 99.08576 17.67703 -0.869801 2.760308 0.6413513 6.161941 -34.32132 3.310632 -0 14.5164 -0 -6.442557 -2.684199 -0.127316 -6.122013 14.37073 -15.48441 -0 10.5082 -0 6.056158 -22.60199 19.98073 -2.657623 -1.58995 3.731835 3.461761 9.898935 -8.553959 1.1009 20.09991 7.991699 3.861457 -26.88442 9.9356 3.866762 -18.06792 11.603 89.19788 32.44294 -22.97985 -0 0 9.88448 -11.03491 9.247256 5.862818 8.537571 -24.08723 -1.425346 -87.92753 20.01622 14.16177 0 0 -26.00316 14.94753 12.73817 -3.694714
2.165032 98.06197 22.6665 -0.9917529 2.811188 1.315447 6.303825 -34.83624 2.147991 -0 11.42942 -0 -6.928987 -1.108883 0.008298897 -5.992246 15.60784 -14.1162 -0 13.00482 -0 4.343393 -22.30781 17.87219 -2.199382 -1.47139 3.299833 3.367675 9.831833 -8.609014 1.018104 20.1421 8.113572 3.849577 -26.41965 9.783354 3.125374 -17.45311 11.44371 90.39453 31.60706 -24.00438 -0 0 8.266427 -11.55546 9.281458 6.060664 8.367582 -24.59813 -1.99071 -86.70541 20.08237 12.60674 0 0 -28.60076 14.22466 11.98166 -2.995552
2.329276 97.19939 28.22746 -1.36456 2.706557 2.064923 6.851375 -33.99834 1.657927 -0 10.09302 -0 -7.61865 -0.4582538 -0.1308788 -5.579936 16.4399 -12.85083 -0 16.61738 -0 2.026554 -20.8544 15.58174 -1.344987 -1.541685 2.834767 3.20945 9.777887 -8.701717 0.8729221 20.19468 8.174164 3.740618 -25.92422 9.567924 2.452463 -16.95813 11.27551 91.50541 30.75791 -24.85582 -0 0 7.101316 -11.97393 9.355831 6.211207 7.987678 -24.83806 -2.489717 -86.03032 20.31736 11.8277 0 0 -30.03007 13.15737 11.49052 -1.856589
2.470781 96.69681 34.24138 -2.006732 2.451163 2.699091 7.791728 -31.77204 1.9652 -0 10.79122 -0 -8.540441 -0.7992575 -0.5333641 -4.874054 16.33282 -11.75023 -0 22.22871 -0 -0.5336283 -18.09802 13.4353 -0.1851662 -1.774132 2.496798 3.050446 9.786987 -8.829529 0.7005585 20.22082 8.110469 3.544061 -25.58049 9.297371 2.016305 -16.6476 11.14813 92.30918 30.09228 -25.36003 -0 0 6.56558 -12.28281 9.544648 6.316418 7.417341 -24.76049 -2.754984 -86.10789 20.48581 12.12221 0 0 -29.66076 12.07211 11.33632 -0.63945
2.616185 96.73378 40.54399 -2.678325 1.982365 3.015416 8.68258 -28.17259 2.71728 -0 12.8768 -0 -9.587083 -1.989552 -1.053794 -4.083115 14.71942 -10.8589 -0 30.60665 -0 -2.774397 -14.34893 11.77437 0.9348557 -2.047207 2.52141 2.93314 9.91801 -8.913674 0.5738573 20.27701 7.862111 3.306861 -25.42831 8.965278 1.925654 -16.51919 11.12323 92.64638 29.76626 -25.43007 -0 0 6.606036 -12.51757 9.887673 6.381101 6.685575 -24.40318 -2.756803 -86.85774 20.47646 13.40673 0 0 -27.51836 11.20685 11.48604 0.3689692
2.794585 97.38413 46.94144 -2.968352 1.191426 2.916845 8.943338 -23.30551 3.316759 -0 14.97878 -0 -10.50934 -3.68249 -1.455668 -3.522132 11.23526 -10.17446 -0 41.4196 -0 -4.197799 -10.36311 10.79933 1.565667 -2.172962 3.076188 2.832816 10.2269 -8.820111 0.5581381 20.48432 7.430051 3.105582 -25.30381 8.559651 2.140305 -16.54283 11.25224 92.48707 29.80778 -25.05769 -0 0 7.00736 -12.77643 10.35359 6.448208 5.847582 -23.88496 -2.653952 -87.90909 20.39821 15.22369 0 0 -24.4425 10.56828 11.75597 1.132964
3.010718 98.55467 53.2293 -2.611104 0.04008243 2.494404 8.373085 -17.49237 3.430225 -0 15.88206 -0 -11.04805 -5.417463 -1.551118 -3.320764 5.924429 -9.6016 -0 52.54809 -0 -4.603096 -7.013425 10.57192 1.45775 -2.016599 4.116291 2.666305 10.74549 -8.458692 0.649474 20.89002 6.905968 3.004857 -24.98097 8.085917 2.484686 -16.75058 11.54718 91.8992 30.13445 -24.22066 -0 0 7.637063 -13.21963 10.87351 6.635028 5.03353 -23.36689 -2.644549 -88.8581 20.3936 17.07553 0 0 -21.57934 10.04988 11.88536 1.751611
3.236353 99.98439 59.22774 -1.722868 -1.328194 1.977988 7.304441 -11.28586 3.171872 -0 15.215 -0 -11.09806 -6.88056 -1.329927 -3.243891 -0.7246691 -8.941869 -0 60.66458 -0 -4.143734 -4.861143 11.09534 0.7459165 -1.592874 5.380192 2.361325 11.42958 -7.86291 0.7632645 21.38465 6.420553 3.000409 -24.36779 7.573941 2.751176 -17.25876 11.96056 90.94658 30.62098 -22.81361 -0 0 8.607701 -14.00358 11.3943 7.101622 4.432219 -22.97294 -2.776547 -89.52198 20.41016 18.7338 0 0 -19.62964 9.617019 11.71775 2.251695
3.443893 101.3043 64.83337 -0.7118456 -2.613965 1.567453 6.274976 -5.273484 2.820058 -0 13.31879 -0 -10.73571 -8.196797 -0.9482776 -2.830437 -7.927308 -7.971519 -0 62.8564 -0 -3.212334 -3.940958 12.29502 -0.1574989 -1.035746 6.526057 1.923099 12.11398 -7.162524 0.7953203 21.78761 6.053173 3.000373 -23.54416 7.065754 2.793849 -18.17538 12.38662 89.62722 31.12791 -20.69335 -0 0 10.17476 -15.17097 11.8741 7.95658 4.180099 -22.70176 -2.930466 -89.96106 20.27331 20.24871 0 0 -18.55057 9.277514 11.31203 2.614356
3.643812 102.1423 70.05816 0.002221004 -3.511425 1.308223 5.647577 0.1674254 2.516885 -0 10.71078 -0 -10.10248 -9.884455 -0.5769134 -1.72309 -14.82046 -6.578544 -0 58.03824 -0 -2.249272 -3.874556 13.9402 -0.83861 -0.5045228 7.297334 1.440173 12.55283 -6.49549 0.6955314 21.98502 5.797242 2.880623 -22.66402 6.607291 2.566783 -19.48901 12.68955 87.91479 31.51989 -17.81511 -0 0 12.48997 -16.6014 12.24965 9.18846 4.270114 -22.41616 -2.944278 -90.33066 19.92567 21.75603 0 0 -17.83988 8.954125 10.86304 2.916924
3.883154 102.2387 75.02882 0.2055429 -3.846984 1.114991 5.461572 4.935679 2.228649 -0 7.808925 -0 -9.296328 -12.3869 -0.2522255 0.06144835 -20.65178 -4.877156 -0 47.34273 -0 -1.583076 -4.169191 15.66183 -1.099618 -0.12922 7.621764 1.030043 12.54591 -5.947685 0.4913305 21.9766 5.607276 2.580251 -21.869 6.248523 2.122013 -21.03442 12.75262 85.85756 31.70681 -14.35939 -0 0 15.42372 -18.07994 12.44467 10.67138 4.571081 -21.94723 -2.723802 -90.7356 19.50135 23.29512 0 0 -16.99507 8.511974 10.52727 3.303918
4.216778 101.5238 79.95275 -0.04826673 -3.632247 0.8717132 5.48957 9.091824 1.866171 -0 5.036343 -0 -8.362419 -15.54775 0.1412567 2.072222 -24.91795 -3.22759 -0 33.58336 -0 -1.343214 -4.473996 17.10174 -1.010557 0.001384338 7.607731 0.7692392 12.0607 -5.53906 0.2635382 21.83692 5.46417 2.162445 -21.26345 6.037695 1.579426 -22.54198 12.52753 83.64317 31.66932 -10.7469 -0 0 18.54868 -19.42479 12.41085 12.21935 4.922523 -21.22829 -2.272904 -91.1902 19.19962 24.75826 0 0 -15.76963 7.907238 10.32793 3.821755
4.685963 100.1281 85.07092 -0.5091001 -3.049324 0.5034305 5.402157 12.7236 1.398832 -0 3.015233 -0 -7.35246 -18.45548 0.7515361 3.617322 -27.43615 -2.105998 -0 20.20186 -0 -1.447809 -4.670371 18.08142 -0.8183995 -0.1507776 7.455259 0.65579 11.2654 -5.235938 0.1069878 21.66175 5.393212 1.792772 -20.91511 6.004054 1.078015 -23.73479 12.0603 81.57971 31.43875 -7.51157 -0 0 21.27221 -20.5736 12.15175 13.65029 5.216084 -20.34523 -1.674956 -91.67016 19.12938 25.97275 0 0 -14.15218 7.262326 10.20039 4.341165
5.314152 98.3344 90.60561 -0.8756806 -2.39169 -0.003423865 4.947171 15.87619 0.8897605 -0 2.569419 -0 -6.401081 -19.80569 1.592762 4.121602 -28.30781 -1.859268 -0 10.09747 -0 -1.673266 -4.816366 18.6585 -0.7922915 -0.5603977 7.336984 0.6223465 10.45302 -4.97781 0.09357711 21.53513 5.43074 1.647654 -20.84827 6.14058 0.7276855 -24.42774 11.47709 80.00888 31.05345 -5.103592 -0 0 23.05299 -21.57365 11.71401 14.83316 5.412244 -19.47584 -1.063407 -92.17286 19.25151 26.82797 0 0 -12.22252 6.784647 10.0988 4.658714
6.106133 96.50061 96.70568 -0.9383203 -1.968872 -0.5999131 4.056361 18.52164 0.4560854 -0 4.474247 -0 -5.741051 -18.56672 2.478445 3.405777 -27.78865 -2.525848 -0 4.75812 -0 -1.780183 -5.0336 19.03776 -1.092448 -1.140111 7.315978 0.5813234 9.903274 -4.709382 0.2457854 21.51571 5.582896 1.815542 -21.02994 6.403117 0.5796699 -24.57952 10.93192 79.19559 30.53229 -3.739502 -0 0 23.5951 -22.49725 11.16436 15.70422 5.507724 -18.783 -0.5860978 -92.72084 19.43594 27.33541 0 0 -10.06757 6.614165 10.04702 4.668177
